<svg width="60" height="60" viewBox="0 0 60 60" fill="none" xmlns="http://www.w3.org/2000/svg">
    <circle cx="30" cy="30" r="30" fill="#F8F8F8"/>
    <g clip-path="url(#clip0_5436_4561)">
        <path d="M37.207 44.2925C37.3013 44.385 37.3762 44.4953 37.4276 44.617C37.479 44.7387 37.5057 44.8693 37.5063 45.0014C37.5069 45.1335 37.4813 45.2644 37.431 45.3865C37.3808 45.5087 37.3068 45.6196 37.2134 45.713C37.12 45.8064 37.009 45.8804 36.8869 45.9306C36.7647 45.9809 36.6339 46.0065 36.5018 46.0059C36.3697 46.0053 36.2391 45.9785 36.1174 45.9272C35.9957 45.8758 35.8854 45.8008 35.7928 45.7066L20.7928 30.7066C20.6053 30.5191 20.5 30.2647 20.5 29.9995C20.5 29.7343 20.6053 29.48 20.7928 29.2925L35.7928 14.2925C35.8854 14.1982 35.9957 14.1233 36.1174 14.0719C36.2391 14.0205 36.3697 13.9938 36.5018 13.9932C36.6339 13.9926 36.7647 14.0182 36.8869 14.0684C37.009 14.1187 37.12 14.1926 37.2134 14.286C37.3068 14.3794 37.3808 14.4904 37.431 14.6125C37.4813 14.7347 37.5069 14.8656 37.5063 14.9976C37.5057 15.1297 37.479 15.2604 37.4276 15.3821C37.3762 15.5037 37.3013 15.614 37.207 15.7066L22.9143 29.9995L37.207 44.2925Z" fill="#3C4226"/>
    </g>
    <defs>
        <clipPath id="clip0_5436_4561">
            <rect width="32" height="32" fill="white" transform="translate(13 14)"/>
        </clipPath>
    </defs>
</svg>
