<svg width="60" height="60" viewBox="0 0 60 60" fill="none" xmlns="http://www.w3.org/2000/svg">
    <circle cx="30" cy="30" r="30" fill="#F8F8F8"/>
    <g clip-path="url(#clip0_5436_4556)">
        <path d="M22.793 44.2925C22.6987 44.385 22.6238 44.4953 22.5724 44.617C22.521 44.7387 22.4943 44.8693 22.4937 45.0014C22.4931 45.1335 22.5187 45.2644 22.569 45.3865C22.6192 45.5087 22.6932 45.6196 22.7866 45.713C22.88 45.8064 22.991 45.8804 23.1131 45.9306C23.2353 45.9809 23.3661 46.0065 23.4982 46.0059C23.6303 46.0053 23.7609 45.9785 23.8826 45.9272C24.0043 45.8758 24.1146 45.8008 24.2072 45.7066L39.2072 30.7066C39.3947 30.5191 39.5 30.2647 39.5 29.9995C39.5 29.7343 39.3947 29.48 39.2072 29.2925L24.2072 14.2925C24.1146 14.1982 24.0043 14.1233 23.8826 14.0719C23.7609 14.0205 23.6303 13.9938 23.4982 13.9932C23.3661 13.9926 23.2353 14.0182 23.1131 14.0684C22.991 14.1187 22.88 14.1926 22.7866 14.286C22.6932 14.3794 22.6192 14.4904 22.569 14.6125C22.5187 14.7347 22.4931 14.8656 22.4937 14.9976C22.4943 15.1297 22.521 15.2604 22.5724 15.3821C22.6238 15.5037 22.6987 15.614 22.793 15.7066L37.0857 29.9995L22.793 44.2925Z" fill="#3C4226"/>
    </g>
    <defs>
        <clipPath id="clip0_5436_4556">
            <rect width="32" height="32" fill="white" transform="matrix(-1 0 0 1 47 14)"/>
        </clipPath>
    </defs>
</svg>
