<svg width="16" height="17" viewBox="0 0 16 17" fill="none" xmlns="http://www.w3.org/2000/svg">
    <g clip-path="url(#clip0_6725_9280)">
        <path d="M8 0.5C3.58173 0.5 0 4.08173 0 8.5C0 12.9183 3.58173 16.5 8 16.5C12.4183 16.5 16 12.9183 16 8.5C16 4.08173 12.4183 0.5 8 0.5ZM10.7052 9.96855C11.0467 10.3101 11.0467 10.8637 10.7052 11.2052C10.5344 11.376 10.3107 11.4613 10.0869 11.4613C9.86308 11.4613 9.63929 11.376 9.46855 11.2052L8 9.73667L6.53149 11.2052C6.36075 11.376 6.13696 11.4613 5.91317 11.4613C5.68938 11.4613 5.46559 11.376 5.29485 11.2052C4.95334 10.8637 4.95334 10.3101 5.29485 9.96855L6.7634 8.5L5.29485 7.03145C4.95334 6.68994 4.95334 6.13629 5.29485 5.79478C5.63636 5.45327 6.19001 5.45327 6.53152 5.79478L8.00004 7.26333L9.46855 5.79478C9.81006 5.45327 10.3637 5.45327 10.7052 5.79478C11.0467 6.13625 11.0467 6.68994 10.7052 7.03145L9.23664 8.5L10.7052 9.96855Z" fill="#E2E2E2"/>
    </g>
    <defs>
        <clipPath id="clip0_6725_9280">
            <rect width="16" height="16" fill="white" transform="translate(0 0.5)"/>
        </clipPath>
    </defs>
</svg>
