<svg width="16" height="16" viewBox="0 0 16 16" fill="none" xmlns="http://www.w3.org/2000/svg">
    <path d="M10.3605 12.4815C10.4085 12.5295 10.389 12.6135 10.324 12.6345C6.474 13.8675 2.308 11.883 1.027 8.16352C0.991 8.05852 0.991 7.94152 1.027 7.83602C1.3985 6.75752 2.022 5.81252 2.821 5.04952C2.8515 5.02052 2.9 5.02152 2.9295 5.05102L5.0805 7.20202C5.0955 7.21702 5.101 7.23802 5.096 7.25852C4.538 9.43102 6.57 11.456 8.734 10.9055C8.7585 10.899 8.7815 10.9035 8.7995 10.9215C8.9785 11.1 10.022 12.143 10.3605 12.4815Z" fill="#E2E2E2"/>
    <path d="M12.3401 11.6331C13.5431 10.7871 14.4806 9.59363 14.9731 8.16263C15.0091 8.05763 15.0091 7.94263 14.9731 7.83763C13.9771 4.94412 11.1751 3.00012 8.00012 3.00012C6.76062 3.00012 5.57963 3.29862 4.53963 3.83262L1.85362 1.14662C1.65812 0.951125 1.34212 0.951125 1.14662 1.14662C0.951125 1.34212 0.951125 1.65812 1.14662 1.85362L14.1466 14.8536C14.3421 15.0491 14.6581 15.0491 14.8536 14.8536C15.0491 14.6581 15.0491 14.3421 14.8536 14.1466L12.3401 11.6331ZM8.00012 5.00012C9.65462 5.00012 11.0001 6.34562 11.0001 8.00012C11.0001 8.64712 10.7921 9.24512 10.4426 9.73563L6.26463 5.55762C6.75513 5.20812 7.35313 5.00012 8.00012 5.00012Z" fill="#E2E2E2"/>
</svg>
