<svg width="16" height="17" viewBox="0 0 16 17" fill="none" xmlns="http://www.w3.org/2000/svg">
    <path d="M7.99935 3.5C4.66602 3.5 1.81935 5.57333 0.666016 8.5C1.81935 11.4267 4.66602 13.5 7.99935 13.5C11.3327 13.5 14.1793 11.4267 15.3327 8.5C14.1793 5.57333 11.3327 3.5 7.99935 3.5ZM7.99935 11.8333C6.15935 11.8333 4.66602 10.34 4.66602 8.5C4.66602 6.66 6.15935 5.16667 7.99935 5.16667C9.83935 5.16667 11.3327 6.66 11.3327 8.5C11.3327 10.34 9.83935 11.8333 7.99935 11.8333ZM7.99935 6.5C6.89268 6.5 5.99935 7.39333 5.99935 8.5C5.99935 9.60667 6.89268 10.5 7.99935 10.5C9.10602 10.5 9.99935 9.60667 9.99935 8.5C9.99935 7.39333 9.10602 6.5 7.99935 6.5Z" fill="#E2E2E2"/>
</svg>
