<svg width="16" height="16" viewBox="0 0 16 16" fill="none" xmlns="http://www.w3.org/2000/svg">
<path d="M3.15628 0.0539665C2.36565 0.216466 1.72503 0.563341 1.15315 1.13209C0.57815 1.70084 0.231275 2.34459 0.0562752 3.15709C0.00315019 3.39459 2.51953e-05 3.71022 2.51953e-05 7.53834C2.51953e-05 12.0133 -0.0062248 11.8165 0.17815 12.3946C0.556275 13.5821 1.51565 14.5508 2.69378 14.929C3.26253 15.1102 3.3344 15.1165 5.5219 15.1165C7.41253 15.1165 7.52503 15.1133 7.68753 15.0571C8.19378 14.879 8.49378 14.4446 8.4969 13.8946C8.4969 13.6446 8.48752 13.604 8.38128 13.3883C8.24378 13.1071 8.0594 12.9321 7.7719 12.7946L7.56253 12.6946L5.56253 12.679C3.6219 12.6633 3.55628 12.6602 3.40315 12.5977C3.0719 12.4602 2.76878 12.1946 2.61253 11.8946C2.41565 11.529 2.4219 11.6852 2.4219 7.56647C2.4219 5.19772 2.4344 3.75084 2.45315 3.64459C2.52815 3.24147 2.82503 2.82272 3.17815 2.62272C3.5219 2.42584 3.50003 2.42897 5.51878 2.42897C6.7594 2.42897 7.4094 2.41647 7.5219 2.39459C8.02503 2.28834 8.39377 1.90397 8.48752 1.39147C8.58127 0.878966 8.30002 0.338342 7.81253 0.0977163L7.62503 0.00709152L5.53128 0.000841141C3.60003 -0.00228405 3.41565 0.000841141 3.15628 0.0539665Z" fill="#3C4226"/>
<path d="M11.3329 3.39465C10.786 3.59777 10.4392 4.1884 10.5454 4.7384C10.6142 5.09465 10.6985 5.21965 11.2892 5.81027L11.8392 6.36652H9.16416C7.32353 6.36652 6.43291 6.3759 6.32041 6.4009C5.95791 6.4759 5.60478 6.74777 5.45478 7.06965C5.28603 7.4259 5.29228 7.77902 5.46728 8.1384C5.65166 8.51027 5.97666 8.74152 6.40478 8.80402C6.53603 8.82277 7.64853 8.83527 9.18291 8.83527H11.7423L11.2423 9.34152C10.611 9.98527 10.561 10.0759 10.561 10.554C10.561 10.8446 10.5704 10.904 10.6454 11.0603C10.761 11.3103 10.9798 11.5353 11.2298 11.6571C11.4204 11.7509 11.4548 11.7571 11.7642 11.7571C12.3173 11.7571 12.2017 11.8478 14.1142 9.93527C15.661 8.38839 15.7673 8.2759 15.8642 8.06965C15.9579 7.87277 15.9673 7.82277 15.9673 7.56965C15.9642 7.2009 15.8923 7.0134 15.6267 6.70715C15.5173 6.57902 14.761 5.8134 13.9485 5.00402C12.2454 3.3134 12.311 3.3634 11.7954 3.34465C11.5579 3.33527 11.4642 3.34777 11.3329 3.39465Z" fill="#3C4226"/>
</svg>
