<svg width="16" height="17" viewBox="0 0 16 17" fill="none" xmlns="http://www.w3.org/2000/svg">
    <path d="M9.33826 4.19104L3.71875 9.81055L6.69196 12.7838L12.3115 7.16425L9.33826 4.19104Z" fill="#3C4226"/>
    <path d="M13.8212 4.89148L11.6263 2.66545C11.4083 2.44752 11.0659 2.44752 10.8635 2.64988C10.8635 2.64988 10.8635 2.64988 10.8479 2.66545L9.88281 3.63058L12.856 6.61938L13.8212 5.65425C14.0391 5.43631 14.0391 5.09385 13.8212 4.89148Z" fill="#3C4226"/>
    <path d="M3.28238 10.4644L2.05261 13.7645C1.94364 14.0447 2.08374 14.356 2.36394 14.465C2.48848 14.5117 2.62858 14.5117 2.75311 14.465L6.05324 13.2197L3.28238 10.4644Z" fill="#3C4226"/>
</svg>
